@startuml

note  as N1 #FAEBD7
    背景颜色介绍：
        红色：非常重要 #FF5000
        绿色：重点关注 #7FFFD4
        黄色：可一般关注
        灰色：弃用 #C0C0C0
        ---简化版类图
    PropertyEditorRegistry：用于注册PropertyEditor。
end note


interface PropertyEditorRegistry
PropertyEditorRegistry : +void registerCustomEditor(Class<?> requiredType, PropertyEditor propertyEditor)
class DataBinder #FF5000
class PropertyEditorRegistrySupport
PropertyEditorRegistrySupport : -Map<Class<?>, PropertyEditor> defaultEditors
PropertyEditorRegistrySupport : -Map<Class<?>, PropertyEditor> customEditors


PropertyEditorRegistry <.. DataBinder
PropertyEditorRegistry <.. PropertyEditorRegistrySupport



@enduml