@startuml

note  as N1 #FAEBD7
    背景颜色介绍：
        红色：非常重要 #FF5000
        绿色：重点关注 #7FFFD4
        黄色：可一般关注
        灰色：弃用 #C0C0C0
        ---简化版类图
    TypeConverter：用于类型转换。
end note


interface TypeConverter
TypeConverter : +<T> T convertIfNecessary(@Nullable Object value, @Nullable Class<T> requiredType)
class DataBinder #FF5000
abstract class TypeConverterSupport


TypeConverter <.. DataBinder
TypeConverter <.. TypeConverterSupport



@enduml