@startuml

note  as N1 #FAEBD7
    背景颜色介绍：
        红色：非常重要 #FF5000
        绿色：重点关注 #7FFFD4
        黄色：可一般关注
        灰色：弃用 #C0C0C0
    FlashMapManager：用于管理FlashMap。
end note

interface FlashMapManager
abstract class AbstractFlashMapManager
class SessionFlashMapManager #7FFFD4
note bottom #7FFFD4: 数据默认存储在session中



AbstractFlashMapManager <|-- SessionFlashMapManager

FlashMapManager <|.. AbstractFlashMapManager

@enduml