@startuml

note  as N1 #FAEBD7
    背景颜色介绍：
        红色：非常重要 #FF5000
        绿色：重点关注 #7FFFD4
        黄色：可一般关注
        灰色：弃用 #C0C0C0
    RequestBodyAdvice：可以在传递给控制器方法之前，修改参数绑定对象
    ResponseBodyAdvice：可以输出相应之前，修改返回结果
        ---扩展点
end note

interface RequestBodyAdvice
class JsonViewRequestBodyAdvice #FF5000
abstract class RequestBodyAdviceAdapter
class RequestResponseBodyAdviceChain #7FFFD4




interface ResponseBodyAdvice<T>
abstract class AbstractJsonpResponseBodyAdvice
abstract class AbstractMappingJacksonResponseBodyAdvice
class JsonViewResponseBodyAdvice #FF5000

AbstractMappingJacksonResponseBodyAdvice <|-- AbstractJsonpResponseBodyAdvice
AbstractMappingJacksonResponseBodyAdvice <|-- JsonViewResponseBodyAdvice

RequestBodyAdvice <|.. RequestBodyAdviceAdapter
RequestBodyAdvice <|.. RequestResponseBodyAdviceChain


RequestBodyAdviceAdapter <|-- JsonViewRequestBodyAdvice

ResponseBodyAdvice <|.. AbstractMappingJacksonResponseBodyAdvice
ResponseBodyAdvice <|.. RequestResponseBodyAdviceChain

@enduml