@startuml

note  as N1 #FAEBD7
    背景颜色介绍：
        红色：非常重要 #FF5000
        绿色：重点关注 #7FFFD4
        黄色：可一般关注
        灰色：弃用 #C0C0C0
    ParameterNameDiscoverer：用于发现方法和构造函数的参数名称的接口。
end note

interface ParameterNameDiscoverer
class AspectJAdviceParameterNameDiscoverer
class DefaultParameterNameDiscoverer #7FFFD4
class KotlinReflectionParameterNameDiscoverer
class LocalVariableTableParameterNameDiscoverer #7FFFD4
class PrioritizedParameterNameDiscoverer
class StandardReflectionParameterNameDiscoverer #7FFFD4



ParameterNameDiscoverer <|.. AspectJAdviceParameterNameDiscoverer
ParameterNameDiscoverer <|.. KotlinReflectionParameterNameDiscoverer
ParameterNameDiscoverer <|.. LocalVariableTableParameterNameDiscoverer
ParameterNameDiscoverer <|.. PrioritizedParameterNameDiscoverer
ParameterNameDiscoverer <|.. StandardReflectionParameterNameDiscoverer

PrioritizedParameterNameDiscoverer <|-- DefaultParameterNameDiscoverer

@enduml