@startuml

note  as N1 #FAEBD7
    背景颜色介绍：
        红色：非常重要 #FF5000
        绿色：重点关注 #7FFFD4
        黄色：可一般关注
        灰色：弃用 #C0C0C0
    AopProxy：用于生成支持AOP的代理对象。
end note

interface AopProxy
AopProxy : +Object getProxy()
AopProxy : +Object getProxy(@Nullable ClassLoader classLoader)
class CglibAopProxy #FF5000
CglibAopProxy : -final AdvisedSupport advised
interface InvocationHandler
class JdkDynamicAopProxy #FF5000
JdkDynamicAopProxy : +Object invoke(Object proxy, Method method, Object[] args)
JdkDynamicAopProxy : -final AdvisedSupport advised
class ObjenesisCglibAopProxy #FF5000
note bottom  #FF5000: 不要求有无参构造函数



AopProxy <|.. CglibAopProxy
AopProxy <|.. JdkDynamicAopProxy


CglibAopProxy <|-- ObjenesisCglibAopProxy

InvocationHandler <|.. JdkDynamicAopProxy


@enduml