@startuml

note  as N1 #FAEBD7
    背景颜色介绍：
        红色：非常重要 #FF5000
        绿色：重点关注 #7FFFD4
        黄色：可一般关注
        灰色：弃用 #C0C0C0
        ClassFilter：描述符合织入逻辑类的特征，验证当前类是否匹配
end note



interface ClassFilter
ClassFilter : +boolean matches(Class<?> clazz)
ClassFilter : +ClassFilter TRUE = TrueClassFilter.INSTANCE
class AnnotationClassFilter
class TrueClassFilter
class TypePatternClassFilter
class RootClassFilter



ClassFilter <|.. AnnotationClassFilter
ClassFilter <|.. TrueClassFilter
ClassFilter <|.. TypePatternClassFilter
ClassFilter <|.. RootClassFilter



@enduml