@startuml

note  as N1 #FAEBD7
    背景颜色介绍：
        红色：非常重要 #FF5000
        绿色：重点关注 #7FFFD4
        黄色：可一般关注
        灰色：弃用 #C0C0C0
    Advisor：代表Spring中的Aspect。
end note

interface Advisor
abstract class AbstractPointcutAdvisor
abstract class AbstractBeanFactoryPointcutAdvisor
abstract class AbstractGenericPointcutAdvisor
class DefaultBeanFactoryPointcutAdvisor
class DefaultPointcutAdvisor #FF5000
note bottom #FF5000: 最常用的Advisor
class NameMatchMethodPointcutAdvisor
interface PointcutAdvisor
note right : 运用任何类型的Pointcut，差不多任何类型的Advice
class RegexpMethodPointcutAdvisor




AbstractGenericPointcutAdvisor <|-- DefaultPointcutAdvisor
AbstractGenericPointcutAdvisor <|-- NameMatchMethodPointcutAdvisor
AbstractGenericPointcutAdvisor <|-- RegexpMethodPointcutAdvisor

AbstractPointcutAdvisor <|-- AbstractGenericPointcutAdvisor
AbstractPointcutAdvisor <|-- AbstractBeanFactoryPointcutAdvisor

AbstractBeanFactoryPointcutAdvisor <|-- DefaultBeanFactoryPointcutAdvisor

Advisor <|-- PointcutAdvisor




PointcutAdvisor <|.. AbstractPointcutAdvisor


@enduml