@startuml

note  as N1 #FAEBD7
    背景颜色介绍：
        红色：非常重要 #FF5000
        绿色：重点关注 #7FFFD4
        黄色：可一般关注
        灰色：弃用 #C0C0C0
    Advisor：可以理解为对应AOP规范的Aspect的概念，包含了
    织入逻辑（Advice）和Pointcut。
end note

interface Advisor
abstract class AbstractPointcutAdvisor
abstract class AbstractGenericPointcutAdvisor
class AspectJExpressionPointcutAdvisor #7FFFD4
class AspectJPointcutAdvisor
interface InstantiationModelAwarePointcutAdvisor
class InstantiationModelAwarePointcutAdvisorImpl #FF5000
interface PointcutAdvisor




AbstractGenericPointcutAdvisor <|-- AspectJExpressionPointcutAdvisor

AbstractPointcutAdvisor <|-- AbstractGenericPointcutAdvisor


Advisor <|-- PointcutAdvisor


InstantiationModelAwarePointcutAdvisor <|-- InstantiationModelAwarePointcutAdvisorImpl

PointcutAdvisor <|.. AbstractPointcutAdvisor
PointcutAdvisor <|.. AspectJPointcutAdvisor
PointcutAdvisor <|-- InstantiationModelAwarePointcutAdvisor


@enduml