@startuml

note  as N1 #FAEBD7
   背景颜色介绍：
        红色：非常重要 #FF5000
        绿色：重点关注 #7FFFD4
        黄色：可一般关注
        灰色：弃用 #C0C0C0
    AbstractAspectJAdvice：织入的业务逻辑
end note

abstract class AbstractAspectJAdvice
interface Advice
class AspectJAfterAdvice #7FFFD4
class AspectJAfterReturningAdvice #7FFFD4
class AspectJAfterThrowingAdvice #7FFFD4
class AspectJAroundAdvice #7FFFD4
class AspectJMethodBeforeAdvice #7FFFD4
interface AspectJPrecedenceInformation
AspectJPrecedenceInformation : +String getAspectName()
AspectJPrecedenceInformation : +int getDeclarationOrder()
AspectJPrecedenceInformation : +boolean isBeforeAdvice()
AspectJPrecedenceInformation : +boolean isAfterAdvice()
interface MethodInterceptor

interface AfterReturningAdvice

interface MethodBeforeAdvice

interface Ordered
Ordered : +int getOrder()



AbstractAspectJAdvice <|-- AspectJAfterAdvice
AbstractAspectJAdvice <|-- AspectJAfterReturningAdvice
AbstractAspectJAdvice <|-- AspectJAroundAdvice
AbstractAspectJAdvice <|-- AspectJAfterThrowingAdvice
AbstractAspectJAdvice <|-- AspectJMethodBeforeAdvice


Advice <|.. AbstractAspectJAdvice

AfterReturningAdvice <.. AspectJAfterReturningAdvice


AspectJPrecedenceInformation <.. AbstractAspectJAdvice


MethodBeforeAdvice <.. AspectJMethodBeforeAdvice

MethodInterceptor <|.. AspectJAfterAdvice
MethodInterceptor <|.. AspectJAfterThrowingAdvice
MethodInterceptor <|.. AspectJAroundAdvice


Ordered <|-- AspectJPrecedenceInformation



@enduml