@startuml

note  as N1 #FAEBD7
    背景颜色介绍：
        红色：非常重要 #FF5000
        绿色：重点关注 #7FFFD4
        黄色：可一般关注
        灰色：弃用 #C0C0C0
    DataBinder：用于数据绑定。
end note


class DataBinder
interface PropertyEditorRegistry
interface TypeConverter
class ExtendedServletRequestDataBinder #FF5000
class ServletRequestDataBinder #FF5000
class WebDataBinder
class WebExchangeDataBinder
class WebRequestDataBinder

DataBinder <|-- WebDataBinder


PropertyEditorRegistry <|.. DataBinder


ServletRequestDataBinder <|-- ExtendedServletRequestDataBinder

TypeConverter <|.. DataBinder

WebDataBinder <|-- ServletRequestDataBinder
WebDataBinder <|-- WebExchangeDataBinder
WebDataBinder <|-- WebRequestDataBinder

@enduml