@startuml

note  as N1 #FAEBD7
    背景颜色介绍：
        红色：非常重要 #FF5000
        绿色：重点关注 #7FFFD4
        黄色：可一般关注
        灰色：弃用 #C0C0C0
        ---简化版类图
    AbstractAdvisingBeanPostProcessor：可以理解为BeanPostProcessor
    中能够生成代理对象的另一支脉。在实例化时非必须的，但存在能够增加程序
    健壮性。
end note

interface BeanPostProcessor
abstract class AbstractAdvisingBeanPostProcessor
abstract class AbstractBeanFactoryAwareAdvisingPostProcessor
class AsyncAnnotationBeanPostProcessor
class MethodValidationPostProcessor #7FFFD4
class PersistenceExceptionTranslationPostProcessor #7FFFD4



AbstractAdvisingBeanPostProcessor <|-- AbstractBeanFactoryAwareAdvisingPostProcessor

AbstractBeanFactoryAwareAdvisingPostProcessor <|-- AsyncAnnotationBeanPostProcessor
AbstractBeanFactoryAwareAdvisingPostProcessor <|-- MethodValidationPostProcessor
AbstractBeanFactoryAwareAdvisingPostProcessor <|-- PersistenceExceptionTranslationPostProcessor



BeanPostProcessor <|-- AbstractAdvisingBeanPostProcessor



@enduml