@startuml

note  as N1 #FAEBD7
    背景颜色介绍：
        红色：非常重要 #FF5000
        绿色：重点关注 #7FFFD4
        黄色：可一般关注
        灰色：弃用 #C0C0C0
        ---简化版类图
    Cache类似Map的数据结构，管理具体缓存的生命周期，
    一个Cache仅能被一个CacheManager拥有。
    <font color=red>RedisCache：该类在spring-data-redis项目中</font>
end note


interface Cache
Cache : +String getName()
Cache : +T get(Object key, @Nullable Class<T> type)
Cache : +void put(Object key, @Nullable Object value)
Cache : +void evict(Object key)
Cache : +void clear()
abstract class AbstractValueAdaptingCache
AbstractValueAdaptingCache : +ValueWrapper get(Object key)
AbstractValueAdaptingCache : +T get(Object key, @Nullable Class<T> type)
AbstractValueAdaptingCache : #abstract Object lookup(Object key)
class EhCacheCache #FF5000
EhCacheCache : +String getName()
EhCacheCache : +T get(Object key, @Nullable Class<T> type)
EhCacheCache : +void put(Object key, @Nullable Object value)
EhCacheCache : +void evict(Object key)
EhCacheCache : +void clear()
class JCacheCache #7FFFD4
JCacheCache : +String getName()
JCacheCache : #Object lookup(Object key)
JCacheCache : +void put(Object key, @Nullable Object value)
JCacheCache : +void evict(Object key)
JCacheCache : +void clear()
class RedisCache #FF5000
RedisCache : +String getName()
RedisCache : #Object lookup(Object key)
RedisCache : +void put(Object key, @Nullable Object value)
RedisCache : +void evict(Object key)
RedisCache : +void clear()
class TransactionAwareCacheDecorator


Cache <|.. AbstractValueAdaptingCache
Cache <|.. EhCacheCache
Cache <|.. TransactionAwareCacheDecorator



AbstractValueAdaptingCache <|-- JCacheCache
AbstractValueAdaptingCache <|-- RedisCache




@enduml