@startuml

note  as N1 #FAEBD7
    背景颜色介绍：
        红色：非常重要 #FF5000
        绿色：重点关注 #7FFFD4
        黄色：可一般关注
        灰色：弃用 #C0C0C0
        ---简化版类图
    CacheInterceptor：为接入AOP体系，
    Advice接口的实现类，CacheInterceptor属于环绕通知。
end note


class CacheInterceptor
CacheInterceptor : +Object invoke(final MethodInvocation invocation)
interface Advice
interface Interceptor
interface MethodInterceptor
MethodInterceptor : +Object invoke(MethodInvocation invocation)
abstract class CacheAspectSupport
CacheAspectSupport : -KeyGenerator keyGenerator
CacheAspectSupport : -CacheResolver cacheResolver
CacheAspectSupport : -CacheOperationSource cacheOperationSource

Advice <|-- Interceptor

Interceptor <|-- MethodInterceptor

MethodInterceptor <.. CacheInterceptor

CacheAspectSupport <|-- CacheInterceptor


@enduml