@startuml

note  as N1 #FAEBD7
    背景颜色介绍：
        红色：非常重要 #FF5000
        绿色：重点关注 #7FFFD4
        黄色：可一般关注
        灰色：弃用 #C0C0C0
    CacheOperationSource：用于获取缓存操作元数据。
    其委托给SpringCacheAnnotationParser来真正进行解析。
end note


interface CacheOperationSource
CacheOperationSource : +Collection<CacheOperation> getCacheOperations(Method method, @Nullable Class<?> targetClass)
abstract class AbstractFallbackCacheOperationSource
class AnnotationCacheOperationSource #7FFFD4
class CompositeCacheOperationSource
class NameMatchCacheOperationSource



AbstractFallbackCacheOperationSource <|-- AnnotationCacheOperationSource



CacheOperationSource <|.. AbstractFallbackCacheOperationSource
CacheOperationSource <|.. CompositeCacheOperationSource
CacheOperationSource <|.. NameMatchCacheOperationSource





@enduml