@startuml

note  as N1 #FAEBD7
    背景颜色介绍：
        红色：非常重要 #FF5000
        绿色：重点关注 #7FFFD4
        黄色：可一般关注
        灰色：弃用 #C0C0C0
        ---简化版类图
    CacheManager：用于管理Cache的生命周期。
    <font color=red>RedisCacheManager：该类在spring-data-redis项目中</font>
end note


interface CacheManager
CacheManager : +Cache getCache(String name)
CacheManager : +Collection<String> getCacheNames()
abstract class AbstractCacheManager
AbstractCacheManager : -final ConcurrentMap<String, Cache> cacheMap
AbstractCacheManager : #abstract Collection<? extends Cache> loadCaches()
AbstractCacheManager : +Cache getCache(String name)
AbstractCacheManager : #Cache getMissingCache(String name)
AbstractCacheManager : +Collection<String> getCacheNames()
abstract class AbstractTransactionSupportingCacheManager
class CompositeCacheManager
class ConcurrentMapCacheManager
class EhCacheCacheManager #FF5000
EhCacheCacheManager : #Collection<RedisCache> loadCaches()
EhCacheCacheManager : #Cache getMissingCache(String name)
class JCacheCacheManager #7FFFD4
JCacheCacheManager : #Collection<RedisCache> loadCaches()
JCacheCacheManager : #Cache getMissingCache(String name)
class RedisCacheManager #FF5000
RedisCacheManager : #Collection<RedisCache> loadCaches()
RedisCacheManager : #Cache getMissingCache(String name)
class TransactionAwareCacheManagerProxy


AbstractCacheManager <|-- AbstractTransactionSupportingCacheManager


AbstractTransactionSupportingCacheManager <|-- EhCacheCacheManager
AbstractTransactionSupportingCacheManager <|-- JCacheCacheManager
AbstractTransactionSupportingCacheManager <|-- RedisCacheManager


CacheManager <|.. AbstractCacheManager
CacheManager <|.. CompositeCacheManager
CacheManager <|.. ConcurrentMapCacheManager
CacheManager <|.. TransactionAwareCacheManagerProxy



@enduml