@startuml

note  as N1 #FAEBD7
    背景颜色介绍：
        红色：非常重要 #FF5000
        绿色：重点关注 #7FFFD4
        黄色：可一般关注
        灰色：弃用 #C0C0C0
        ---简化版类图
    CacheOperationSourcePointcut：为接入AOP体系，
    Pointcut接口的实现类。
end note

abstract class CacheOperationSourcePointcut #FF5000
CacheOperationSourcePointcut : +boolean matches()
interface MethodMatcher
MethodMatcher : +boolean matches()
interface Pointcut
Pointcut : +ClassFilter getClassFilter();
Pointcut : +MethodMatcher getMethodMatcher();
abstract class StaticMethodMatcher
abstract class StaticMethodMatcherPointcut
StaticMethodMatcherPointcut : -ClassFilter classFilter = ClassFilter.TRUE



MethodMatcher <.. StaticMethodMatcher

Pointcut <.. StaticMethodMatcherPointcut

StaticMethodMatcher <|-- StaticMethodMatcherPointcut

StaticMethodMatcherPointcut <|-- CacheOperationSourcePointcut


@enduml