@startuml

note  as N1 #FAEBD7
    背景颜色介绍：
        红色：非常重要 #FF5000
        绿色：重点关注 #7FFFD4
        黄色：可一般关注
        灰色：弃用 #C0C0C0
    TransactionStatus表示整个事务处理过程中的事务状态，
    我们能够通过它对事务提交进行干预。
end note


interface TransactionStatus
TransactionStatus : +boolean isNewTransaction()
TransactionStatus : +boolean hasSavepoint()
TransactionStatus : +void setRollbackOnly()
TransactionStatus : +boolean isRollbackOnly()
TransactionStatus : +void flush()
TransactionStatus : +boolean isCompleted()
abstract class AbstractTransactionStatus
class DefaultTransactionStatus #FF5000
DefaultTransactionStatus : -Object transaction
DefaultTransactionStatus : -boolean newTransaction
DefaultTransactionStatus : -boolean newSynchronization
DefaultTransactionStatus : -boolean readOnly
DefaultTransactionStatus : -Object suspendedResources
interface Flushable
interface SavepointManager
class SimpleTransactionStatus



AbstractTransactionStatus <|-- DefaultTransactionStatus
AbstractTransactionStatus <|-- SimpleTransactionStatus


Flushable <|-- TransactionStatus

SavepointManager <|-- TransactionStatus


TransactionStatus <|.. AbstractTransactionStatus

@enduml