@startuml

note  as N1 #FAEBD7
    背景颜色介绍：
        红色：非常重要 #FF5000
        绿色：重点关注 #7FFFD4
        黄色：可一般关注
        灰色：弃用 #C0C0C0
    TransactionDefinition负责定义事务相关属性，包括隔离级别，
    传播行为等，是事务管理元数据

end note

interface TransactionDefinition
TransactionDefinition : +int getPropagationBehavior()
TransactionDefinition : +int getIsolationLevel()
TransactionDefinition : +int getTimeout()
TransactionDefinition : +int isReadOnly()
class DefaultTransactionAttribute #7FFFD4
class DefaultTransactionDefinition #7FFFD4
abstract class DelegatingTransactionAttribute
abstract class DelegatingTransactionDefinition
class RuleBasedTransactionAttribute #FF5000
interface TransactionAttribute #7FFFD4
TransactionAttribute : + boolean rollbackOn(Throwable ex)
class TransactionTemplate


interface TransactionOperations
TransactionOperations : +<T> T execute(TransactionCallback<T> action)

DefaultTransactionAttribute <|-- RuleBasedTransactionAttribute

DefaultTransactionDefinition <|-- DefaultTransactionAttribute
DefaultTransactionDefinition <|-- TransactionTemplate


DelegatingTransactionDefinition <|-- DelegatingTransactionAttribute


TransactionAttribute <|.. DefaultTransactionAttribute
TransactionAttribute <|.. DelegatingTransactionAttribute


TransactionDefinition <|.. DefaultTransactionDefinition
TransactionDefinition <|.. DelegatingTransactionDefinition
TransactionDefinition <|-- TransactionAttribute

TransactionOperations <|.. TransactionTemplate


@enduml